<svg xmlns="http://www.w3.org/2000/svg" viewBox="0 0 512 512">
  <path fill="#7952B3" d="M106.342 128.174l21.377 239.85 128.36 35.823 128.367-35.823 21.38-239.85zm194.064 37.924h-124.93l3.437 38.464h117.989l-10.412 116.585-73.552 20.411-73.558-20.411-5.04-56.383h36.026l2.56 28.675 39.998 10.796.064-.017 40.011-10.779 4.16-46.615H132.31l-10.125-113.385h187.567z"/>
  <path fill="#7952B3" d="M255.979 32C132.488 32 32 132.488 32 256s100.488 224 223.979 224C379.512 480 480 379.512 480 256S379.512 32 255.979 32zm0 428.8c-112.906 0-204.8-91.894-204.8-204.8s91.894-204.8 204.8-204.8S460.779 143.094 460.779 256 368.885 460.8 255.979 460.8z"/>
</svg>
