<svg xmlns="http://www.w3.org/2000/svg" viewBox="0 0 256 256">
  <path fill="#2496ED" d="M250.716 93.547l-71.121-12.393-31.488-63.8a8.343 8.343 0 0 0-14.954 0l-31.488 63.8-71.121 12.393a8.343 8.343 0 0 0-4.633 14.228l51.438 50.15-12.143 70.808a8.343 8.343 0 0 0 12.109 8.792L140.86 201.1l63.545 36.425a8.343 8.343 0 0 0 12.109-8.792l-12.143-70.808 51.438-50.15a8.343 8.343 0 0 0-4.633-14.228z"/>
  <path fill="#1D63ED" d="M128 20L96.512 83.8l-71.12 12.393 51.437 50.15-12.143 70.808L128 180.725V20z"/>
</svg>
