<svg xmlns="http://www.w3.org/2000/svg" viewBox="0 0 256 256">
  <g fill="none">
    <rect width="256" height="256" fill="#000" rx="28"/>
    <path fill="#FFF" d="M165.68 146.416c0-7.568-5.888-13.392-13.136-13.392s-13.136 5.824-13.136 13.392c0 7.568 5.888 13.392 13.136 13.392s13.136-5.824 13.136-13.392zm-66.976 0c0-7.568-5.888-13.392-13.136-13.392S72.432 138.848 72.432 146.416c0 7.568 5.888 13.392 13.136 13.392s13.136-5.824 13.136-13.392z"/>
    <path fill="#FFF" d="M128 28.64c-54.72 0-99.36 44.64-99.36 99.36s44.64 99.36 99.36 99.36 99.36-44.64 99.36-99.36S182.72 28.64 128 28.64zm0 178.288c-43.488 0-78.928-35.44-78.928-78.928S84.512 49.072 128 49.072s78.928 35.44 78.928 78.928-35.44 78.928-78.928 78.928z"/>
    <path fill="#FFF" d="M128 98.784c-16.544 0-29.984 13.44-29.984 29.984h11.328c0-10.304 8.352-18.656 18.656-18.656s18.656 8.352 18.656 18.656h11.328c0-16.544-13.44-29.984-29.984-29.984z"/>
  </g>
</svg>
