<svg xmlns="http://www.w3.org/2000/svg" viewBox="0 0 256 256">
  <g fill="none">
    <rect width="256" height="256" fill="#FF2D20" rx="28"/>
    <path fill="#FFF" d="M149.266 109.766a3.148 3.148 0 0 1 2.04-3.056l35.388-13.155a3.146 3.146 0 0 1 3.992 1.768l22.925 60.626a3.148 3.148 0 0 1-1.767 3.992l-35.388 13.155a3.146 3.146 0 0 1-3.992-1.768l-22.926-60.626c-.403-1.074-.033-2.261.728-2.936zm-60.854 22.626a3.148 3.148 0 0 1-2.04 3.056L50.984 148.603a3.146 3.146 0 0 1-3.992-1.768L24.067 86.209a3.148 3.148 0 0 1 1.768-3.992l35.388-13.155a3.146 3.146 0 0 1 3.992 1.768l22.925 60.626c.403 1.074.033 2.261-.728 2.936zm55.04-75.326L81.994 41.77a2.104 2.104 0 0 0-2.661 1.178L42.83 150.45a2.104 2.104 0 0 0 1.178 2.661l61.458 22.925a2.104 2.104 0 0 0 2.661-1.178L144.63 67.356a2.104 2.104 0 0 0-1.178-2.661z"/>
  </g>
</svg>
