<svg xmlns="http://www.w3.org/2000/svg" viewBox="0 0 118 128">
    <path fill="#3E863D" d="M116.828 35.462L59.043 1.258a1.597 1.597 0 0 0-1.636 0L-.001 35.462v60.038l57.408 34.204a1.597 1.597 0 0 0 1.636 0l57.785-34.204V35.462zM59.208 97.457c-17.065 0-26.685-7.795-26.685-21.575h14.735c0 7.399 4.398 10.428 11.758 10.428 6.467 0 10.158-2.613 10.158-7.07 0-4.667-3.957-6.096-12.83-8.318-12.722-3.136-23.011-6.184-23.011-19.985 0-12.983 9.49-20.916 24.31-20.916 16.516 0 24.904 7.206 24.904 20.378H68.324c-.452-5.405-3.827-8.72-10.118-8.72-5.267 0-8.914 2.155-8.914 6.568 0 4.108 3.555 5.518 12.016 7.6 13.064 3.208 23.827 6.643 23.827 20.444 0 13.916-10.446 20.736-25.927 20.736z"/>
</svg>
