<svg xmlns="http://www.w3.org/2000/svg" viewBox="0 0 256 166" width="256" height="166">
    <path fill="#00DC82" d="M166.75 32.89L253.94 159.5c3.08 4.47-1.12 10.35-6.49 10.35H180.2l-62.91-91.13c-2.33-3.37-7.46-3.37-9.79 0L52.88 157.94c-2.33 3.37.08 8.01 4.16 8.01h56.09c4.27 0 6.64 5.06 3.82 8.28-1.57 1.8-3.9 2.82-6.31 2.82H40.23C27.37 169.05 19.34 155.1 25.79 143.51l89.65-161.43c6.45-11.59 23.36-11.59 29.81 0l21.5 30.81z"/>
    <path fill="#00DC82" d="M211.39 96.67l34.8 50.41c6.45 9.36.08 22.38-11.3 22.38h-48.4c-4.27 0-6.64-5.06-3.82-8.28 1.57-1.8 3.9-2.82 6.31-2.82h34.81c3.15 0 4.88-3.61 3.31-6.1L193.3 103.22c-1.57-2.49-5.17-2.49-6.74 0l-16.7 26.54-15.01-21.75 25.13-36.42c2.33-3.37 7.46-3.37 9.79 0l21.62 31.32z"/>
</svg>
