<svg xmlns="http://www.w3.org/2000/svg" viewBox="0 0 256 256">
  <g fill="none">
    <rect width="256" height="256" fill="#777BB3" rx="28"/>
    <path fill="#FFF" d="M81.042 89.742h24.043l-12.022 61.627H69.02zm87.042 41.298c-.429-2.862-1.287-5.293-2.503-7.291-1.288-1.998-3.003-3.505-5.218-4.504-2.144-1-4.86-1.498-8.076-1.498-4.86 0-9.006 1.069-12.451 3.22-3.445 2.08-6.09 4.933-7.949 8.575h-.357l1.715-11.003h-22.042l-12.022 61.627h24.043l6.805-34.783c.857-4.504 2.572-7.936 5.146-10.288 2.573-2.423 5.86-3.648 9.721-3.648 2.93 0 5.074.641 6.447 1.998 1.373 1.357 1.859 3.433 1.502 6.228l-7.234 40.493h24.042l7.663-40.493c.5-2.495.643-4.862.5-7.22z"/>
  </g>
</svg>
