<svg xmlns="http://www.w3.org/2000/svg" viewBox="0 0 256 256">
  <path fill="#003B57" d="M150.188 33.121c-4.745-2.64-10.16-4.02-15.775-4.02-8.557 0-16.503 3.397-22.375 9.559-5.872 6.162-9.104 14.357-9.104 23.068 0 4.392.883 8.599 2.627 12.508 1.693 3.795 4.12 7.236 7.19 10.2 6.31 6.09 14.706 9.447 23.63 9.447 4.393 0 8.6-.883 12.508-2.628 10.115-4.516 17.022-14.562 17.577-25.569.554-10.992-5.406-21.414-15.278-26.565zm-16.5 50.38c-6.252 0-12.232-2.345-16.843-6.6-2.234-2.06-4.004-4.564-5.254-7.432-1.29-2.957-1.944-6.154-1.944-9.502 0-6.464 2.388-12.502 6.724-17.005 4.336-4.503 10.123-6.983 16.294-6.983 4.032 0 7.96.997 11.37 2.885 7.318 4.054 11.802 11.655 11.493 19.493-.413 8.164-5.648 15.458-13.327 18.575-2.885 1.262-5.916 1.9-9.018 1.9z"/>
  <path fill="#003B57" d="M189.467 107.736c-18.074-18.074-42.23-28.033-67.99-28.033-25.76 0-49.916 9.959-67.99 28.033S25.453 149.966 25.453 175.726c0 25.759 9.96 49.916 28.034 67.99 18.074 18.074 42.23 28.033 67.99 28.033 25.76 0 49.916-9.959 67.99-28.033 18.074-18.074 28.033-42.23 28.033-67.99 0-25.76-9.959-49.916-28.033-67.99zm-67.99 149.063c-44.545 0-80.797-36.252-80.797-80.797 0-44.546 36.252-80.797 80.797-80.797 44.545 0 80.797 36.251 80.797 80.797 0 44.545-36.252 80.797-80.797 80.797z"/>
</svg>
