<svg xmlns="http://www.w3.org/2000/svg" viewBox="0 0 256 255">
  <path fill="#21759B" d="M18.124 127.5c0 43.296 25.16 80.711 61.646 98.442L27.614 82.986a117.226 117.226 0 0 0-9.49 44.514zm197.477-5.86c0-13.517-4.856-22.879-9.02-30.165-5.545-9.018-10.741-16.65-10.741-25.668 0-10.061 7.627-19.415 18.368-19.415.486 0 .947.06 1.418.088-19.46-17.828-45.387-28.714-73.863-28.714-38.213 0-71.832 19.606-91.39 49.302 2.566.077 4.984.13 7.039.13 11.44 0 29.15-1.387 29.15-1.387 5.897-.348 6.592 8.312.702 9.01 0 0-5.926.697-12.52 1.042l39.832 118.48 23.937-71.79-17.042-46.692c-5.889-.345-11.47-1.042-11.47-1.042-5.894-.346-5.203-9.358.691-9.01 0 0 18.064 1.388 28.811 1.388 11.44 0 29.151-1.388 29.151-1.388 5.897-.346 6.592 8.313.702 9.01 0 0-5.938.697-12.52 1.042l39.528 117.581 10.91-36.458c4.728-15.129 8.327-25.995 8.327-35.36zm-71.921 15.087l-32.818 95.363a117.498 117.498 0 0 0 29.065 3.716c11.983 0 23.456-2.053 34.164-5.778a7.822 7.822 0 0 1-.615-1.181l-29.796-92.12zm93.443-61.656c.474 3.493.744 7.244.744 11.277 0 11.127-2.083 23.637-8.327 39.281l-33.411 96.6c32.518-18.963 54.391-54.193 54.391-94.545.002-19.017-4.856-36.9-13.397-52.613zM127.822 0C57.245 0 0 57.307 0 127.961c0 70.654 57.245 127.961 127.822 127.961 70.576 0 127.822-57.307 127.822-127.961C255.644 57.307 198.398 0 127.822 0zm0 249.415c-67.01 0-121.411-54.46-121.411-121.454 0-67.002 54.401-121.461 121.411-121.461 67.002 0 121.404 54.459 121.404 121.46 0 66.995-54.402 121.455-121.404 121.455z"/>
</svg>
